<?xml version="1.0" encoding="utf-8"?>
<!-- Generator: Adobe Illustrator 26.0.2, SVG Export Plug-In . SVG Version: 6.00 Build 0)  -->
<svg version="1.1" id="Layer_1" xmlns="http://www.w3.org/2000/svg" xmlns:xlink="http://www.w3.org/1999/xlink" x="0px" y="0px"
	 viewBox="0 0 200 61.5" style="enable-background:new 0 0 200 61.5;" xml:space="preserve">
<style type="text/css">
	.st0{fill:#F32735;}
	.st1{fill:#5FBA46;}
	.st2{fill:#D6A102;}
	.st3{fill:#C11728;}
	.st4{fill:#289438;}
	.st5{fill:#4A7634;}
	.st6{fill:#D28D0E;}
	.st7{fill:#E6331D;}
	.st8{fill:#F59D08;}
	.st9{fill:#0076B8;}
	.st10{fill:#931831;}
	.st11{fill:#00A7D7;}
	.st12{fill:#004C84;}
	.st13{fill:#E2071F;}
	.st14{fill:#DD0979;}
	.st15{fill:#1F3262;}
</style>
<g transform="translate(-2.835 -2.641)">
	<path class="st0" d="M59.5,37.9c-0.9,0-1.9,0.1-2.8,0.2c-1.2,0.2-2.3,0.6-3.5,1c-1.4,0.5-2.6,1.3-3.7,2.3c-1.8,1.6-3.3,3.3-4.6,5.3
		c-0.9,1.4-1.7,2.8-2.4,4.3c-0.7,1.4-1.4,2.8-2,4.2c-0.4,1-0.7,2.1-1,3.1c-0.3,1-1.1,1.8-2.2,2.1c-0.5,0.3-1.2,0.1-1.6-0.3
		c-0.3-0.3-0.7-0.5-0.9-0.8c-0.1-0.3,0-0.7,0-1.1c0-2.5-0.1-5-0.4-7.6c-0.2-1.3-0.5-2.6-0.8-3.9c-0.1-0.3-0.2-0.6-0.3-0.8
		c-0.6,0.5-1.4,0.6-2.1,0.3c-0.6-0.3-1.3-0.5-1.9-0.8c-1.3-0.7-2.7-1.3-4-2c-1.1-0.5-2.3-0.8-3.5-0.9c-0.8-0.2-1.6-0.3-2.4-0.2
		c-0.9,0.2-1.9,0.3-2.8,0.5c-0.2,0.1-0.3,0.2-0.4,0.3c-0.3,0.4-0.5,0.9-0.8,1.4c-0.6,1-1.2,2-1.8,2.9c-0.3,0.4-0.5,0.9-0.6,1.4
		c0.6,0.1,1.3,0.1,2,0.1c1,0,1.9,0,2.9,0.1c1,0.1,1.8,0.7,2.3,1.5c0.2,0.2,0.1,0.6-0.1,0.8c-0.5,0.6-1.2,0.8-1.9,0.8
		c-1,0-2-0.1-3-0.1s-2,0.1-3,0.1c-0.3,0-0.6,0.2-0.8,0.4c-0.7,1.4-1.6,2.8-2.7,4c-0.1,0.2-0.2,0.3-0.4,0.6c0.1,0.1,0.3,0.1,0.5,0.1
		c2.2-0.3,4.5-0.4,6.7-0.3c0.7,0,1.5,0.1,2.2,0.1c1.2,0.1,2.1,0.9,2.4,2.1c0.2,0.5-0.1,1.1-0.6,1.2c0,0,0,0,0,0l0,0
		c-0.5,0.2-1,0.3-1.5,0.2c-1.3-0.2-2.5-0.4-3.8-0.5c-1.2,0-2.4,0.1-3.5,0.2c-1,0.1-1.9,0.3-2.9,0.5c-0.2,0-0.3,0.1-0.4,0.1
		c-0.7,0.3-1.5,0.5-2.3,0.4c-0.3,0-0.6,0-0.9,0.1c-0.5,0.1-1-0.2-1.1-0.7c0-0.1,0-0.2,0-0.3c0-1.1,0.3-2.1,0.9-3
		c0.9-1.3,1.6-2.6,2.4-4c0.3-0.5,0.6-1,0.9-1.5c0.1-0.2,0.2-0.4,0.1-0.6c-0.2-0.9,0-1.6,0.9-1.8c0.4-0.1,0.7-0.4,0.9-0.7
		c0.7-1.2,1.3-2.4,2-3.7c0-0.1,0.1-0.2,0.1-0.3c-0.5,0.2-1,0.4-1.5,0.6c-0.4,0.2-0.8,0.3-1.2,0.5c-0.8,0.4-1.1,0.1-1.3-0.8
		C6.8,44.3,7,43.4,7.7,43c1.2-0.9,2.6-1.7,4-2.4c1.2-0.6,2.4-1,3.7-1.4c1.7-0.5,3.5-0.8,5.3-0.9c1.5-0.1,3,0.2,4.4,0.7
		c1.6,0.6,3.1,1.3,4.6,2c0.7,0.4,1.3,0.9,1.9,1.5c0.2,0.1,0.4,0.3,0.7,0.5c-0.1-0.5-0.3-0.8-0.3-1.2c-0.2-0.7,0.1-1.1,0.8-1.2
		c1.4-0.1,2.6,0.1,3.2,1.7c0.5,1.4,0.8,2.9,1,4.3c0.1,0.5,0.2,0.9,0.3,1.4c0.1,0.8,0.2,1.5,0.4,2.4c0.5-0.8,0.9-1.6,1.4-2.3
		c0.5-0.8,1-1.5,1.5-2.3c0.6-0.8,1.3-1.6,1.8-2.5c0.8-1.2,1.7-2.3,2.7-3.2c1.3-1.2,2.8-2.3,4.4-3c1.2-0.6,2.4-1,3.6-1.2
		c0.7-0.1,1.4-0.2,2-0.2c1.4-0.1,2.9,0,4.3,0.3c0.1,0,0.3,0,0.4,0c0.5-0.1,1,0.1,1.2,0.6c0.4-0.3,0.9-0.6,1.3-0.8c1-0.3,2-0.5,3-0.7
		c0.7-0.1,1.4-0.1,2.1,0c0.6,0.1,1.3,0.2,1.9,0.3c1.1,0.2,2.1,0.6,3,1.1c0.3,0.2,0.7,0.2,1,0.4c0.9,0.4,1.8,0.8,2.6,1.2
		c0.5,0.3,1.1,0.7,1.5,1.1c0.9,0.9,1.8,1.8,2.7,2.7c0,0,0.1,0,0.2,0.1c0.3-0.3,0.5-0.7,0.8-1c0-0.1,0.1-0.1,0.1-0.2
		c0.8-1.1,1.5-2.2,2.3-3.2c0.7-0.9,1.6-1.6,2.6-2.2c1.4-0.7,3-0.6,4.3,0.3c0.5,0.4,1,0.9,1.4,1.4c0.8,1.2,0.7,2.9-0.1,4.1
		c-0.7,0.8-1.3,1.7-2.1,2.5c-0.7,0.6-1.5,1.3-2.3,1.8c-0.4,0.3-0.7,0.6-1.2,0.9c1.4,1.2,2.8,2.3,4.1,3.4c1.1,0.9,2.1,1.8,3.1,2.8
		c1,1.1,1.9,2.3,2.8,3.4c0.5,0.6,1,1.3,1.5,1.9c0.3,0.4,0.5,0.8,0.6,1.2c0.2,0.3,0.1,0.8-0.2,1c-0.3,0.3-0.8,0.3-1.1,0.1
		c-1.1-0.6-2-1.3-2.8-2.3c-1.2-1.6-2.6-3.1-4.1-4.5c-1.4-1.2-2.9-2.3-4.5-3.2c-0.8-0.4-1.7-0.9-2.5-1.3c-0.6-0.2-1.2-0.4-1.8-0.6
		c-0.7,1.3-1.4,2.5-2,3.7c-0.5,0.9-1.1,1.9-1.6,2.8c-0.5,0.9-1,1.8-1.5,2.8c-0.4,0.7-0.9,1.3-1.5,1.8c-0.2,0.1-0.4,0.2-0.6,0.1
		c-0.4-0.2-0.9-0.5-1.3-0.8c-0.3-0.2-0.5-0.4-0.8-0.6c-0.1-0.5,0-1,0.4-1.4c0.6-0.9,1.2-1.8,1.8-2.8c1-1.7,1.9-3.3,2.8-5
		c0.5-0.9,1-1.7,1.5-2.8c-0.1-0.1-0.3-0.2-0.4-0.2c-0.5-0.2-0.8-0.6-0.9-1.1c-0.4-1.3-1.1-2.4-2.1-3.2c-0.6-0.5-1.2-1-1.9-1.5
		c-0.9-0.6-2-1-3.1-1.2c-1.3-0.3-2.7-0.5-4.1-0.4c-2.5,0.2-4.9,1.2-6.9,2.8c-0.3,0.3-0.6,0.3-0.9-0.1c-0.1-0.1-0.2-0.2-0.3-0.4
		c-0.4-0.4-0.4-1.1,0-1.5l0,0c0.2-0.2,0.4-0.4,0.5-0.6c0.2-0.2,0.4-0.5,0.7-0.7L59.5,37.9z M84.6,42.9l0.2,0.2
		c1.2-1.1,2.4-2.2,3.6-3.3c0.1-0.2,0.2-0.4,0.3-0.6c0.1-0.5-0.1-0.6-0.6-0.4c-0.3,0.1-0.6,0.3-0.8,0.5c-1,1-1.7,2.3-2.5,3.4
		C84.7,42.7,84.6,42.8,84.6,42.9z M177.5,51.3c0,0.1,0,0.1-0.1,0.1c-0.2,0.4-0.4,0.9-0.5,1.4c-0.4,1.3-0.7,2.6-1,3.9
		c-0.5,1.8-0.9,3.6-1.4,5.4c0,0.2-0.1,0.3-0.2,0.4c-0.4,0.6-0.4,0.6,0.1,1.1c0.3,0.4,0.9,0.5,1.4,0.4c0.8-0.1,1.5-0.4,2.2-0.7
		c1.5-0.7,3.1-1.2,4.7-1.8c1.6-0.7,3.2-1.2,4.9-1.7c1.4-0.3,2.9-0.5,4.3-0.4c0.9,0.1,1.7,0,2.6-0.2c0.4-0.1,0.6-0.4,0.6-0.8
		c0-0.2-0.1-0.4-0.3-0.5c-0.7-0.6-1.5-1-2.4-1.1c-0.6,0-1.1-0.1-1.6-0.2c-3.6-0.4-7.3,0.2-10.7,1.5c-0.3,0.1-0.6,0.2-0.9,0.3
		l2.4-8.7c1.5,0.4,3,0.7,4.5,1.1c2.2,0.6,4.3,1.2,6.6,1.6c1.2,0.2,1.7-0.4,1.3-1.5c-0.1-0.3-0.3-0.6-0.6-0.8c-0.3-0.3-0.6-0.5-1-0.6
		c-0.9-0.4-1.8-0.7-2.6-1c-1.7-0.7-3.5-1.3-5.4-1.6c-0.7-0.1-1.3-0.2-1.9-0.5l2.6-9.7c0.5,0,1-0.1,1.4-0.2c1.2-0.4,2.4-0.6,3.6-0.6
		c0.9-0.1,1.8-0.1,2.7,0c1,0,2,0.1,3.1,0.1c0.4,0.1,0.9,0.2,1.3,0.3c0.9,0.3,1.9,0.4,2.9,0.4c0.1,0,0.1,0,0.2,0c0.6,0,1.2,0.1,1.8,0
		c0.5-0.1,0.9-0.5,0.9-1.1c0-0.2-0.1-0.4-0.2-0.6c-0.3-0.4-0.7-0.8-1.2-1c-0.8-0.3-1.7-0.5-2.6-0.7c-1.1-0.2-2.2-0.3-3.4-0.5
		c-1.2-0.2-2.4-0.2-3.5,0c-1.2,0.2-2.5,0.4-3.7,0.5c-1.2,0.1-2.3,0.4-3.4,0.8c-1,0.3-1.9,0.8-2.9,1.1c-1,0.3-1.8,1-2.4,1.9l1.1,0.7
		c-0.3,1.3-0.6,2.5-0.9,3.8s-0.6,2.5-0.8,3.8c-1.2-0.1-2.4-0.2-3.5-0.2c-1,0-1.9,0.1-2.9,0.3c-0.6,0.1-1.2,0.5-1.5,1.1
		c-0.2,0.5-0.2,0.8,0.3,1.1c0.3,0.2,0.6,0.3,1,0.3c1.4,0.1,2.9,0.3,4.3,0.4c0.5,0,0.9,0.2,1.4,0.2C177.7,49.8,177.6,50.6,177.5,51.3
		L177.5,51.3z M139.2,43.7c-0.1,1.7-0.6,3.3-1.5,4.7c-1.5,2.5-3.4,4.9-5.5,7c-1.4,1.5-3.2,2.8-5.1,3.6c-0.8,0.3-1.5,0.6-2.3,0.9
		c-1,0.4-2.1,0.3-3-0.2c-1.2-0.6-2.2-1.4-2.8-2.6c-0.1-0.2-0.2-0.5-0.3-0.7c-0.4-1.6-0.3-3.3,0.2-4.8c0.7-1.7,1.6-3.4,2.5-5
		c0-0.1,0.1-0.2,0.2-0.3c0.8-0.8,1.7-1.6,2.5-2.5c0.1-0.1,0.2-0.1,0.2-0.2c1.4-1.8,3.5-2.7,5.5-3.7c0.8-0.4,1.7-0.8,2.5-1
		c0.6-0.2,1.3-0.3,1.9-0.2c1.2,0.1,2.4,0.6,3.4,1.3c1.1,0.7,1.6,2,1.5,3.2C139.2,43.4,139.2,43.5,139.2,43.7L139.2,43.7z
		 M135.2,41.7c-0.7-0.3-1.6-0.4-2.4-0.3c-0.9,0-1.8,0.3-2.5,0.8c-1.2,0.9-2.4,1.8-3.6,2.8c-0.1,0.1-0.2,0.1-0.2,0.2
		c-1.2,1.4-2.3,2.8-3.3,4.4c-0.4,0.7-0.7,1.4-0.9,2.2c-0.1,0.5-0.2,1.1-0.3,1.6c-0.1,1.1,0.4,2.1,1.2,2.7c0.9,0.6,2.1,0.6,3-0.1
		c0.9-0.5,1.7-1.1,2.5-1.7c1.1-0.9,2.1-2,2.9-3.2c0.8-1.1,1.5-2.2,2.3-3.3c0.3-0.5,0.6-1,0.8-1.5c0.3-0.8,0.6-1.6,0.9-2.4
		c0.3-0.5,0.2-1.2-0.3-1.6C135.3,42.3,135.3,42,135.2,41.7L135.2,41.7z M161.6,53.4c-1.1-2-2.1-4-3.1-6.1c-0.7-1.7-1.6-3.2-2.6-4.7
		c-0.6-0.9-1.3-1.8-2.1-2.5c-0.1-0.1-0.2-0.1-0.2-0.2c-0.7-0.9-1.5-1.6-2.4-2.2c-0.5-0.5-1.2-0.8-1.9-1c-0.4-0.1-0.8-0.1-1.2,0.1
		c-1,0.8-1.4,2,0,2.8c0.6,0.4,1.3,0.7,1.9,1c0.2,0.1,0.5,0.3,0.7,0.5c0.7,0.8,1.3,1.7,2.1,2.5c1.2,1.2,2.3,2.6,3.1,4.2
		c0.6,1.1,1.1,2.1,1.7,3.2c0.1,0.1,0.1,0.2,0.1,0.4c0.5,1,0.6,2.1,1.1,3.1c0.5,1.1,1,2.2,1.3,3.3c0.5,1.1,1,2.1,1.7,3.1l-0.1,0.5
		c0.2,0,0.4,0,0.7,0.1c0.7,0.4,1,0,1.5-0.4c0.3-0.4,0.5-0.8,0.5-1.3c0.4-2.3,0.6-4.6,1.2-6.8c0.3-1.7,0.8-3.4,1.4-5.1
		c0.1-0.4,0.3-0.7,0.4-1.1c0.2-0.6,0.4-1.2,0.7-1.7c0.8-1.4,1.7-2.8,2.5-4.2c0.6-1,1.4-1.9,2.3-2.6c0.6-0.5,1.2-1.1,1.6-1.8
		c0.2-0.3,0.4-0.7,0.1-0.9c-0.2-0.2-0.6-0.4-0.9-0.4c-0.7,0-1.3,0.1-1.9,0.5c-0.6,0.5-1.3,1-1.9,1.6c-0.2,0.2-0.4,0.4-0.6,0.5
		c-0.5,0.3-0.9,0.7-1.2,1.2c-0.2,0.3-0.4,0.6-0.6,0.9c-0.5,0.8-1.1,1.5-1.5,2.3c-0.4,0.7-0.7,1.6-1.2,2.3c-0.7,1.4-1.3,2.9-1.6,4.4
		c-0.4,1.3-0.7,2.5-1,3.8c-0.1,0.3-0.2,0.6-0.4,0.9C161.6,53.4,161.6,53.4,161.6,53.4L161.6,53.4z M110.1,50.6
		c-0.3,1.6-0.7,3.2-1,4.9c-0.2,1.3-0.4,2.6-0.5,3.9c-0.2,0.8-0.1,1.6,0.2,2.3c0.2,0.3,0.3,0.6,0.8,0.6c0.4,0,0.8-0.3,0.9-0.7
		c0.6-1.5,1-3.1,1.3-4.7c0.2-1.2,0.5-2.5,0.8-3.7c0.1-0.5,0.3-0.9,0.4-1.4c0.3-1,0.6-2,1-3c0.5-1.2,0.5-2.5,1.1-3.6
		c0.4-0.9,0.6-1.8,1-2.6c0.5-1.1,1-2.2,1.5-3.4c0.1-0.3,0.1-0.7,0-1.1c-0.2-0.8-0.8-1.4-1.5-1.7c-0.7-0.4-1.2-0.3-1.6,0.4
		c-0.2,0.4-0.3,0.8-0.5,1.2c-0.2,0.9-0.8,1.6-1.5,2.1c-0.4,0.2-0.7,0.5-1.1,0.7c-1.9,1.2-4.2,1.8-6.5,1.4c-0.3-0.1-0.6-0.1-0.9-0.3
		c-1.4-0.4-2.3-1.7-3.5-2.4c-0.1-0.1-0.2-0.3-0.3-0.4c-0.6-0.6-1.5-0.7-2.2-0.2c-0.6,0.5-0.7,1.5-0.2,2.1c0.4,0.6,0.9,1.1,1.4,1.6
		c0.5,0.5,1.1,1,1.7,1.4c0.3,0.3,0.7,0.5,1.1,0.6c1,0.3,2.1,0.6,3.2,0.9c0.8,0.2,1.5,0.3,2.3,0.3c1.3-0.1,2.6-0.4,3.7-1
		C110.9,47,110.5,48.8,110.1,50.6z M61.4,42.3c0,0.7-0.1,1.4-0.2,2.1c-0.5,1.9-1.1,3.7-1.7,5.6c-0.1,0.4-0.3,0.5-0.7,0.5
		c-0.8,0-1.7,0-2.5-0.1c-0.8-0.1-1.6,0-2.3,0.2c-0.2,0.6-0.3,1.2-0.4,1.7c-0.1,0.4,0.1,0.8,0.5,0.9c0,0,0,0,0,0c0.1,0,0.1,0,0.2,0
		c0.7,0.2,1.4,0.2,2.2,0.3c0.6,0.1,1.1,0.1,1.8,0.2c-0.1,0.4-0.2,0.7-0.3,1c-0.4,1.1-0.6,2.3-0.4,3.4c0,0.3,0.2,0.6,0.4,0.8
		c1.1,1.1,2.5,1.7,4.1,1.8c1.2,0,2.4-0.1,3.6-0.5c0.9-0.1,1.8-0.5,2.5-1c0.4-0.3,0.6-0.7,0.5-1.2c-0.1-0.5-0.6-0.9-1.1-0.9
		c-0.4,0-0.7,0.1-1.1,0.2c-1,0.3-2,0.5-3.1,0.8c-0.4,0-0.8,0-1.2,0c-0.3,0-0.6-0.1-0.7-0.5c-0.3-1.3-0.1-2.6,0.4-3.7
		c0.4,0,0.8,0,1.2,0c1.1,0,2.1,0.1,3.2,0.1c0.8-0.1,1.5-0.1,2.3,0c0.8,0.2,1.6-0.1,2.1-0.7c0.2-0.2,0.3-0.5,0.3-0.8
		c0-0.5-0.3-0.9-0.8-1c-0.4-0.1-0.8-0.4-1.2-0.5c-0.3-0.1-0.6-0.2-1-0.3c-1.4-0.1-2.9-0.1-4.3-0.2c-0.2,0-0.4,0-0.7-0.1
		c0.3-0.7,0.5-1.3,0.7-1.9c0.4-1,0.7-2,1-3.1c0.3-0.8,0.6-1.6,0.7-2.4c0.1-1.1-0.1-2.1-1.8-2c-0.8,0-1.6,0.2-2.4,0.5
		C61.4,41.8,61.4,42.1,61.4,42.3z M146,41.7c-0.2,0.3-0.4,0.8-0.4,1.2c0,0.2,0,0.5-0.1,0.7c-0.4,1.4-0.9,2.8-1.3,4.1
		c-0.5,1.6-0.9,3.2-1.3,4.9c-0.1,0.3-0.1,0.7-0.1,1c0,0.4,0.1,0.7,0.2,1.1c0.1,0.1,0.1,0.2,0.3,0.3c0.6,0.2,1.2,0,1.6-0.5
		c0.2-0.4,0.5-0.8,0.7-1.1c0.7-1.1,1.4-2.2,2-3.3c0.4-0.8,0.7-1.5,1-2.3c0.7-1.7,1.2-3.5,1.5-5.3c0.1-0.4-0.1-0.8-0.4-1
		c-0.4-0.5-1.1-0.8-1.7-0.6C147,40.5,146.4,41,146,41.7L146,41.7z"/>
	<g transform="translate(35.145 2.641)">
		<path d="M6.6,0.3H0.5C0.2,0.3,0,0.5,0,0.7c0,0,0,0,0,0l0,0v17.1c0,0.3,0.2,0.5,0.5,0.5l0,0h2.4c0.3,0,0.5-0.2,0.5-0.5v-6.1h3.2
			c3.2,0.1,5.8-2.5,5.9-5.7c0.1-3.2-2.5-5.8-5.7-5.9C6.7,0.3,6.6,0.3,6.6,0.3z M6.4,8.6h-3V3.4h3C7.8,3.4,9,4.5,9,5.9v0
			C9,7.4,7.9,8.6,6.4,8.6L6.4,8.6L6.4,8.6z M34,5.8c0-3.1-2.5-5.6-5.6-5.6H21c-0.3,0-0.5,0.2-0.5,0.5v17.1c0,0.3,0.2,0.5,0.5,0.5
			h2.4c0.3,0,0.5-0.2,0.5-0.5v-6.6h2.9l3.4,6.8c0.1,0.2,0.2,0.2,0.4,0.2h2.7c0.3,0,0.5-0.2,0.5-0.5c0-0.1,0-0.2-0.1-0.3L30.2,11
			C32.4,10.3,33.9,8.2,34,5.8L34,5.8z M28.1,8.5h-4.2V3.4h4.2c1.4,0,2.5,1.1,2.6,2.5C30.6,7.3,29.5,8.5,28.1,8.5L28.1,8.5z
			 M72.6,0.8V13c0.2,2.9-1.9,5.4-4.8,5.6c0,0,0,0,0,0c-0.2,0-0.4,0-0.6,0c-1.5,0-3-0.7-3.9-1.9c-0.1-0.2-0.1-0.5,0.1-0.6l1.3-1.4
			c0.2-0.2,0.5-0.2,0.7,0c0,0,0,0,0,0c0,0,0,0,0.1,0.1c0.4,0.5,1,0.8,1.7,0.8c1,0,2.1-0.8,2.1-2.6V0.7c0-0.3,0.2-0.5,0.5-0.5h2.4
			C72.4,0.3,72.6,0.5,72.6,0.8L72.6,0.8z M93.5,0.8v2.1c0,0.3-0.2,0.5-0.5,0.5h-7.7v4.2h6.4c0.3,0,0.5,0.2,0.5,0.5v2.1
			c0,0.3-0.2,0.5-0.5,0.5h-6.4v4.5H93c0.3,0,0.5,0.2,0.5,0.5v2.1c0,0.3-0.2,0.5-0.5,0.5H82.5c-0.3,0-0.5-0.2-0.5-0.5V0.7
			c0-0.3,0.2-0.5,0.5-0.5H93C93.3,0.3,93.5,0.5,93.5,0.8L93.5,0.8z M116.6,15.4c0.2,0.2,0.2,0.5,0,0.7c0,0,0,0,0,0h0
			c-1.7,1.6-3.9,2.5-6.3,2.5c-5.1,0-9.3-4.2-9.3-9.3s4.2-9.3,9.3-9.3c0,0,0,0,0,0l0,0c2.3-0.1,4.6,0.8,6.3,2.4
			c0.2,0.2,0.2,0.5,0.1,0.7c0,0,0,0,0,0c0,0,0,0,0,0L115,4.8c-0.1,0.2-0.4,0.2-0.6,0.1c0,0,0,0,0,0c0,0,0,0-0.1-0.1
			c-1.1-1-2.5-1.5-4-1.5c-3.2,0.1-5.8,2.7-5.8,6c0,0,0,0,0,0v0.1c-0.1,3.2,2.5,5.9,5.7,6h0.1c1.4,0,2.8-0.5,4-1.5
			c0.2-0.2,0.5-0.2,0.6,0L116.6,15.4z M135.4,0.8v2.1c0,0.3-0.2,0.5-0.5,0.5h-4v14.5c0,0.3-0.2,0.5-0.5,0.5h-2.4
			c-0.3,0-0.5-0.2-0.5-0.5V3.4h-4c-0.3,0-0.5-0.2-0.5-0.5c0,0,0,0,0,0l0,0V0.7c0-0.3,0.2-0.5,0.5-0.5h11.3
			C135.2,0.3,135.4,0.5,135.4,0.8C135.4,0.7,135.4,0.7,135.4,0.8L135.4,0.8L135.4,0.8z"/>
		<g transform="translate(40.235 0.257)">
			<path class="st1" d="M4.8,6.6C5,6.3,5.3,5.9,5.6,5.6l-2.7-3C2.2,3.2,1.6,4,1.1,4.8L4.8,6.6z"/>
			<path class="st2" d="M11.5,4.5c0.4,0.2,0.8,0.4,1.1,0.7l2.7-3c-0.7-0.6-1.5-1.1-2.4-1.5L11.5,4.5z"/>
			<path class="st3" d="M17.8,5.4l-3.6,1.8c0.2,0.4,0.3,0.8,0.4,1.3l4-0.4C18.4,7.2,18.2,6.3,17.8,5.4"/>
			<path class="st4" d="M13.9,6.7l3.6-1.8c-0.4-0.8-1-1.6-1.7-2.3l-2.7,3C13.4,6,13.7,6.3,13.9,6.7"/>
			<path class="st5" d="M4.1,9.3c0-0.1,0-0.2,0-0.2L0,8.7c0,0.2,0,0.4,0,0.6c0,0.8,0.1,1.5,0.3,2.3l3.9-1.1
				C4.1,10.1,4.1,9.7,4.1,9.3"/>
			<path class="st6" d="M13.4,12.6c-0.3,0.4-0.6,0.7-1,0.9l2.1,3.5c0.8-0.5,1.5-1.2,2.1-1.9L13.4,12.6z"/>
			<path class="st7" d="M14.6,9.3c0,0.4,0,0.8-0.1,1.1l3.9,1.1c0.2-0.7,0.3-1.5,0.3-2.2c0-0.2,0-0.4,0-0.6l-4,0.4L14.6,9.3"/>
			<path class="st8" d="M5.3,12.7l-3.2,2.5c0.6,0.7,1.3,1.4,2.1,1.9l2.1-3.5C6,13.4,5.6,13.1,5.3,12.7"/>
			<path class="st9" d="M4.1,8.5C4.2,8,4.3,7.6,4.5,7.2L0.9,5.4C0.5,6.2,0.2,7.2,0.1,8.1L4.1,8.5z"/>
			<path class="st10" d="M14,17.3l-2.1-3.5c-0.4,0.2-0.8,0.4-1.2,0.5l0.8,4C12.3,18.2,13.2,17.8,14,17.3"/>
			<path class="st11" d="M14.3,11c-0.1,0.4-0.3,0.8-0.6,1.2l3.2,2.4c0.5-0.8,0.9-1.6,1.2-2.5L14.3,11z"/>
			<path class="st12" d="M10.1,14.5c-0.5,0.1-0.9,0.1-1.4,0l-0.8,4c1,0.1,1.9,0.1,2.9,0L10.1,14.5z"/>
			<path class="st13" d="M9.6,4.1c0.4,0,0.9,0.1,1.3,0.3l1.5-3.8C11.5,0.2,10.6,0,9.6,0L9.6,4.1z"/>
			<path class="st14" d="M8.1,14.4c-0.4-0.1-0.9-0.3-1.3-0.5l-2.1,3.5c0.8,0.5,1.7,0.8,2.7,1L8.1,14.4z"/>
			<path class="st15" d="M7.7,4.3c0.4-0.1,0.9-0.2,1.3-0.2V0c-1,0-1.9,0.2-2.8,0.5L7.7,4.3z"/>
			<path class="st6" d="M5,12.2c-0.3-0.4-0.5-0.8-0.6-1.2l-3.9,1.1c0.3,0.9,0.7,1.8,1.3,2.6L5,12.2z"/>
			<path class="st12" d="M6.1,5.2c0.3-0.3,0.7-0.5,1.1-0.7L5.7,0.7C4.8,1.1,4,1.6,3.3,2.2L6.1,5.2z"/>
		</g>
	</g>
</g>
</svg>
